<svg xmlns="http://www.w3.org/2000/svg" width="59.713" height="40.952" viewBox="0 0 59.713 40.952">
  <path id="group" d="M29.7,5.655c-5.142,0-9.312,4.866-9.312,10.871a11.22,11.22,0,0,0,4.949,9.605l-3.415,1.582-9.086,4.215a2.3,2.3,0,0,0-1.315,2.236V44.171a2.328,2.328,0,0,0,2.04,2.437H45.885a2.31,2.31,0,0,0,2.106-2.437V34.164a2.3,2.3,0,0,0-1.315-2.236l-8.758-4.215L34.279,25.99a11.282,11.282,0,0,0,4.73-9.464c0-6-4.168-10.871-9.312-10.871ZM14.679,9.478a7.188,7.188,0,0,0-5.3,2.568,9.942,9.942,0,0,0-2.206,6.188,9.408,9.408,0,0,0,4.082,7.834l-10.2,4.74A1.736,1.736,0,0,0,0,32.651v8.031c.055,1.065.607,1.961,1.645,1.975H8.428V34.164a5.531,5.531,0,0,1,3.1-5L18.3,25.935a6.51,6.51,0,0,0,1.514-1.252,15.257,15.257,0,0,1-1.382-14.022,7.467,7.467,0,0,0-3.754-1.186Zm30.284,0a7.193,7.193,0,0,0-3.883,1.315,15.38,15.38,0,0,1-1.317,13.76,6.959,6.959,0,0,0,1.78,1.514l6.517,3.1a5.623,5.623,0,0,1,3.029,5V42.66h6.978a1.814,1.814,0,0,0,1.647-1.975V32.651a1.883,1.883,0,0,0-1.053-1.843L48.587,26a9.645,9.645,0,0,0,3.949-7.769,9.9,9.9,0,0,0-2.206-6.188,7.344,7.344,0,0,0-5.366-2.568Z" transform="translate(0 -5.655)"/>
</svg>
