<svg xmlns="http://www.w3.org/2000/svg" xmlns:xlink="http://www.w3.org/1999/xlink" width="74" height="74" viewBox="0 0 74 74">
  <defs>
    <linearGradient id="linear-gradient" x1="0.5" x2="0.5" y2="1" gradientUnits="objectBoundingBox">
      <stop offset="0" stop-color="#146eaa"/>
      <stop offset="1" stop-color="#0a3755"/>
    </linearGradient>
    <filter id="Path_1462" x="0" y="0" width="74" height="74" filterUnits="userSpaceOnUse">
      <feOffset dx="2" dy="3" input="SourceAlpha"/>
      <feGaussianBlur stdDeviation="3" result="blur"/>
      <feFlood flood-opacity="0.161"/>
      <feComposite operator="in" in2="blur"/>
      <feComposite in="SourceGraphic"/>
    </filter>
    <linearGradient id="linear-gradient-2" x1="0.5" x2="0.5" y2="1" gradientUnits="objectBoundingBox">
      <stop offset="0" stop-color="#fff"/>
      <stop offset="1" stop-color="gray"/>
    </linearGradient>
  </defs>
  <g id="Group_1586" data-name="Group 1586" transform="translate(-394.56 -445.25)">
    <g transform="matrix(1, 0, 0, 1, 394.56, 445.25)" filter="url(#Path_1462)">
      <path id="Path_1462-2" data-name="Path 1462" d="M28,0A28,28,0,1,1,0,28,28,28,0,0,1,28,0Z" transform="translate(7 6)" fill="url(#linear-gradient)"/>
    </g>
    <text id="_216" data-name="216" transform="translate(430.251 474.789)" fill="#fff" font-size="12" font-family="Raleway-Bold, Raleway" font-weight="700" letter-spacing="0.009em"><tspan x="-10.104" y="0">216</tspan></text>
    <g id="Group_17" data-name="Group 17" transform="translate(418.868 481.184)">
      <path id="Path_179" data-name="Path 179" d="M271.449,317.919v2.143c0,.728-1.941,1.334-4.327,1.334s-4.286-.586-4.286-1.314v-.243l-.04-1.7h.02c.323.627,2.1,1.112,4.246,1.112s4.347-.607,4.347-1.334h.04Z" transform="translate(-251.564 -307.869)" fill="url(#linear-gradient-2)"/>
      <path id="Path_180" data-name="Path 180" d="M154.5,112.074V114.2h-.04c0,.748-2,1.334-4.367,1.334a10.375,10.375,0,0,1-2.729-.3l-.04.04a4.723,4.723,0,0,0-1.5-.829v-.04l-.061-2.244c.142.687,2.022,1.233,4.306,1.233s4.387-.586,4.387-1.314Z" transform="translate(-139.532 -110.78)" fill="url(#linear-gradient-2)"/>
      <path id="Path_181" data-name="Path 181" d="M154.5,79.959h0c0,.728-2,1.314-4.387,1.314s-4.185-.546-4.327-1.233c0-.02-.02-.061-.02-.081,0-.728,1.941-1.334,4.347-1.334C152.521,78.6,154.5,79.211,154.5,79.959Z" transform="translate(-139.533 -78.624)" fill="url(#linear-gradient-2)"/>
      <path id="Path_182" data-name="Path 182" d="M261.815,266.053h0l-.021-.472-.043-1.932c.15.73,2.136,1.31,4.549,1.31s4.549-.623,4.613-1.374h.021v2.233h-.043c0,.773-2.072,1.417-4.592,1.417S262.157,266.719,261.815,266.053Z" transform="translate(-251.05 -255.983)" fill="url(#linear-gradient-2)"/>
      <path id="Path_183" data-name="Path 183" d="M188.608,312.465a4.338,4.338,0,0,0,1.193-1.86h.1c.445.04.89.061,1.375.061h.2v.445l.04,1.7H191.3a10.476,10.476,0,0,1-2.628-.283Z" transform="translate(-180.822 -300.838)" fill="url(#linear-gradient-2)"/>
      <path id="Path_184" data-name="Path 184" d="M221.633,254.444v.1l.04,1.88h-.2c-.505,0-.97-.02-1.415-.061h-.1a4.149,4.149,0,0,0,.2-1.314,4.092,4.092,0,0,0-.1-.869h.1c.425.04.849.061,1.314.061l.182.1A.22.22,0,0,0,221.633,254.444Z" transform="translate(-210.915 -246.876)" fill="url(#linear-gradient-2)"/>
      <path id="Path_185" data-name="Path 185" d="M186.037,167.962a10.376,10.376,0,0,0,2.729.3c2.365,0,4.367-.586,4.367-1.334h.04v2.386c-2.2,0-4,.526-4.225,1.193l-.182-.1q-.667,0-1.274-.061h-.1A4.081,4.081,0,0,0,186,167.982Z" transform="translate(-178.143 -163.219)" fill="url(#linear-gradient-2)"/>
      <g id="Group_16" data-name="Group 16" transform="translate(0 4.167)">
        <path id="Path_186" data-name="Path 186" d="M8.633,169.34h0A4.425,4.425,0,0,0,7.2,166.934a3.842,3.842,0,0,0-1.537-.849,3.906,3.906,0,0,0-1.274-.2,4.347,4.347,0,1,0-.081,8.693A4.435,4.435,0,0,0,7.3,173.424,4.391,4.391,0,0,0,8.512,171.5a4.026,4.026,0,0,0,.2-1.294C8.714,169.926,8.633,169.623,8.633,169.34Z" transform="translate(0 -165.883)" fill="url(#linear-gradient-2)"/>
        <path id="Path_187" data-name="Path 187" d="M270.424,229.9v.04c-.061.708-2.022,1.294-4.367,1.294s-4.165-.546-4.306-1.233v-.1a.257.257,0,0,1,.02-.121c.222-.667,2.022-1.193,4.225-1.193h.061C268.443,228.581,270.424,229.167,270.424,229.9Z" transform="translate(-250.56 -226.155)" fill="url(#linear-gradient-2)"/>
      </g>
      <path id="Path_188" data-name="Path 188" d="M76.7,198.313a.667.667,0,1,1,.667-.667.4.4,0,1,0,.809,0,1.492,1.492,0,0,0-1.072-1.415v-.162a.4.4,0,0,0-.809,0v.162a1.412,1.412,0,0,0-1.072,1.415,1.484,1.484,0,0,0,1.476,1.476.667.667,0,1,1,0,1.334h0a.673.673,0,0,1-.667-.667.4.4,0,1,0-.809,0,1.474,1.474,0,0,0,1.072,1.415v.323a.4.4,0,0,0,.809,0V201.2a1.458,1.458,0,0,0,.991-1.84A1.474,1.474,0,0,0,76.7,198.313Z" transform="translate(-72.114 -190.583)" fill="url(#linear-gradient-2)"/>
    </g>
  </g>
</svg>
