<svg xmlns="http://www.w3.org/2000/svg" width="61.403" height="62.055" viewBox="0 0 61.403 62.055">
  <g id="flat" transform="translate(-24 -25.267)">
    <path id="Tracciato_1" data-name="Tracciato 1" d="M352,24h11.1V47.132H352Z" transform="translate(-283.698 1.267)" fill="#e6af89"/>
    <g id="Raggruppa_1" data-name="Raggruppa 1" transform="translate(24 28.161)">
      <path id="Tracciato_2" data-name="Tracciato 2" d="M79,46a2,2,0,0,0-2-2H65V40H62.553A3.75,3.75,0,0,0,59.9,41.1L57,44H24V56H54l5.308,2.654A12.751,12.751,0,0,0,65.01,60H77a2,2,0,1,0,0-4,2,2,0,1,0,0-4,2,2,0,0,0,0-4,2,2,0,0,0,2-2Z" transform="translate(-24 -40)" fill="#fdc9a6"/>
      <path id="Tracciato_3" data-name="Tracciato 3" d="M406.564,162.081a4.158,4.158,0,0,1,2.944,1.217,4.2,4.2,0,0,1,.661.863H394.081a2.081,2.081,0,0,1,0-4.161h16.088A4.159,4.159,0,0,1,406.564,162.081Z" transform="translate(-355.725 -147.816)" fill="#fdc9a6"/>
      <path id="Tracciato_4" data-name="Tracciato 4" d="M406.564,130.081a4.158,4.158,0,0,1,2.944,1.217,4.2,4.2,0,0,1,.661.863H394.081a2.081,2.081,0,0,1,0-4.161h16.088A4.16,4.16,0,0,1,406.564,130.081Z" transform="translate(-355.725 -118.321)" fill="#fdc9a6"/>
      <path id="Tracciato_5" data-name="Tracciato 5" d="M409.508,99.3a4.2,4.2,0,0,1,.661.863H394.081a2.081,2.081,0,0,1,0-4.161h16.088a4.16,4.16,0,0,1-3.6,2.081A4.158,4.158,0,0,1,409.508,99.3Z" transform="translate(-355.725 -89.84)" fill="#fdc9a6"/>
    </g>
    <path id="Tracciato_6" data-name="Tracciato 6" d="M392,97.031A1.031,1.031,0,0,1,393.031,96H401a2.061,2.061,0,0,1-1.786,1.031Z" transform="translate(-323.296 -60.275)" fill="#f6bb92"/>
    <path id="Tracciato_7" data-name="Tracciato 7" d="M62,56a2.083,2.083,0,0,1,2,2.157V71.1h4v2.639a4.211,4.211,0,0,1-1.1,2.86L64,79.725V111H52V82.961l-2.654-5.724A14.64,14.64,0,0,1,48,71.087V58.157a2.006,2.006,0,1,1,4,0,2.006,2.006,0,1,1,4,0,2.006,2.006,0,1,1,4,0A2.083,2.083,0,0,1,62,56Z" transform="translate(-17.758 -23.678)" fill="#f6bb92"/>
    <path id="Tracciato_9" data-name="Tracciato 9" d="M392,129.031A1.031,1.031,0,0,1,393.031,128H401a2.061,2.061,0,0,1-1.786,1.031Z" transform="translate(-323.296 -87.953)" fill="#f6bb92"/>
    <path id="Tracciato_10" data-name="Tracciato 10" d="M392,161.031A1.031,1.031,0,0,1,393.031,160H401a2.06,2.06,0,0,1-1.786,1.031Z" transform="translate(-323.296 -116.631)" fill="#f6bb92"/>
    <path id="Tracciato_11" data-name="Tracciato 11" d="M144,67.14a1.031,1.031,0,0,0,1.031-1.031V58.14A2.06,2.06,0,0,0,144,59.926Z" transform="translate(-101.792 -25.261)" fill="#e6af89"/>
    <path id="Tracciato_12" data-name="Tracciato 12" d="M112,67.14a1.031,1.031,0,0,0,1.031-1.031V58.14A2.06,2.06,0,0,0,112,59.926Z" transform="translate(-74.114 -25.261)" fill="#e6af89"/>
    <path id="Tracciato_13" data-name="Tracciato 13" d="M80,67.224a1.04,1.04,0,0,0,1.04-1.04V58.14a2.08,2.08,0,0,0-1.04,1.8Z" transform="translate(-46.436 -25.261)" fill="#e6af89"/>
    <path id="Tracciato_14" data-name="Tracciato 14" d="M64,302a2,2,0,0,0,2,2H78v4h2.447a3.75,3.75,0,0,0,2.652-1.1L86,304h31V292H89l-5.308-2.654A12.751,12.751,0,0,0,77.99,288H66a2,2,0,1,0,0,4,2,2,0,0,0,0,4,2,2,0,0,0,0,4A2,2,0,0,0,64,302Z" transform="translate(-31.597 -228.343)" fill="#fdc9a6"/>
    <path id="Tracciato_15" data-name="Tracciato 15" d="M324,216v2l-2.654,5.308a12.751,12.751,0,0,0-1.346,5.7V241a2,2,0,1,0,4,0,2,2,0,1,0,4,0,2,2,0,1,0,4,0,2,2,0,1,0,4,0V229h4v-2.447a3.75,3.75,0,0,0-1.1-2.652L336,221v-5Z" transform="translate(-256.354 -167.968)" fill="#e6af89"/>
    <path id="Tracciato_16" data-name="Tracciato 16" d="M416,360a1.031,1.031,0,0,1,1.031,1.031V369A2.06,2.06,0,0,1,416,367.214Z" transform="translate(-340.054 -294.618)" fill="#c99978"/>
    <path id="Tracciato_17" data-name="Tracciato 17" d="M384,360a1.031,1.031,0,0,1,1.031,1.031V369A2.061,2.061,0,0,1,384,367.214Z" transform="translate(-312.376 -294.618)" fill="#c99978"/>
    <path id="Tracciato_18" data-name="Tracciato 18" d="M352,360a1.031,1.031,0,0,1,1.031,1.031V369A2.06,2.06,0,0,1,352,367.214Z" transform="translate(-284.698 -294.618)" fill="#c99978"/>
    <path id="Tracciato_19" data-name="Tracciato 19" d="M75.14,384a1.031,1.031,0,0,1-1.031,1.031H66.14A2.061,2.061,0,0,1,67.926,384Z" transform="translate(-33.181 -312.376)" fill="#e6af89"/>
    <path id="Tracciato_20" data-name="Tracciato 20" d="M75.14,352a1.031,1.031,0,0,1-1.031,1.031H66.14A2.06,2.06,0,0,1,67.926,352Z" transform="translate(-33.181 -284.698)" fill="#e6af89"/>
    <path id="Tracciato_21" data-name="Tracciato 21" d="M75.14,320a1.031,1.031,0,0,1-1.031,1.031H66.14A2.061,2.061,0,0,1,67.926,320Z" transform="translate(-33.181 -257.02)" fill="#e6af89"/>
  </g>
</svg>
