<svg xmlns="http://www.w3.org/2000/svg" width="65" height="43.986" viewBox="0 0 65 43.986">
  <g id="money" transform="translate(0 -78.624)">
    <g id="Raggruppa_17" data-name="Raggruppa 17" transform="translate(0 78.624)">
      <path id="Tracciato_179" data-name="Tracciato 179" d="M292.678,317.919v7.4c0,2.513-6.7,4.608-14.941,4.608s-14.8-2.025-14.8-4.538v-.838l-.14-5.865h.07c1.117,2.164,7.261,3.84,14.661,3.84s15.011-2.094,15.011-4.608h.14Z" transform="translate(-227.678 -285.941)" fill="#e2a63b"/>
      <path id="Tracciato_180" data-name="Tracciato 180" d="M175.928,112.074V119.4h-.14c0,2.583-6.912,4.608-15.08,4.608a35.831,35.831,0,0,1-9.425-1.047l-.14.14a16.313,16.313,0,0,0-5.166-2.862v-.14l-.209-7.75c.489,2.374,6.982,4.259,14.871,4.259s15.15-2.025,15.15-4.538Z" transform="translate(-126.288 -107.604)" fill="#f4b844"/>
      <path id="Tracciato_181" data-name="Tracciato 181" d="M175.929,83.234h0c0,2.513-6.912,4.538-15.15,4.538s-14.452-1.885-14.941-4.259c0-.07-.07-.209-.07-.279,0-2.513,6.7-4.608,15.011-4.608C169.087,78.556,175.929,80.651,175.929,83.234Z" transform="translate(-126.288 -78.624)" fill="#fedb41"/>
      <path id="Tracciato_182" data-name="Tracciato 182" d="M261.96,271.613h0l-.07-1.536-.14-6.283c.489,2.374,6.982,4.259,14.871,4.259s14.871-2.025,15.08-4.468h.07v7.261h-.14c0,2.513-6.772,4.608-15.011,4.608S263.078,273.777,261.96,271.613Z" transform="translate(-226.772 -238.867)" fill="#f4b844"/>
      <path id="Tracciato_183" data-name="Tracciato 183" d="M188.608,317.028a14.98,14.98,0,0,0,4.119-6.423h.349c1.536.14,3.072.209,4.748.209h.7v1.536l.14,5.865h-.768a36.177,36.177,0,0,1-9.076-.977Z" transform="translate(-163.404 -279.605)" fill="#e2a63b"/>
      <path id="Tracciato_184" data-name="Tracciato 184" d="M225.75,255.089v.349l.14,6.493h-.7c-1.745,0-3.351-.07-4.887-.209h-.349a14.328,14.328,0,0,0,.7-4.538,14.13,14.13,0,0,0-.349-3h.349c1.466.14,2.932.209,4.538.209l.628.349A.759.759,0,0,0,225.75,255.089Z" transform="translate(-190.562 -230.721)" fill="#f4b844"/>
      <path id="Tracciato_185" data-name="Tracciato 185" d="M186.137,170.492a35.831,35.831,0,0,0,9.425,1.047c8.168,0,15.08-2.025,15.08-4.608h.14v8.238c-7.61,0-13.824,1.815-14.592,4.119l-.628-.349q-2.3,0-4.4-.209h-.349A14.092,14.092,0,0,0,186,170.561Z" transform="translate(-161.141 -155.13)" fill="#e2a63b"/>
      <g id="Raggruppa_16" data-name="Raggruppa 16" transform="translate(0 11.661)">
        <path id="Tracciato_186" data-name="Tracciato 186" d="M29.812,177.822h0a15.281,15.281,0,0,0-4.957-8.308,13.267,13.267,0,0,0-5.306-2.932,13.487,13.487,0,0,0-4.4-.7,15.011,15.011,0,1,0-.279,30.021,15.314,15.314,0,0,0,10.333-3.98,15.161,15.161,0,0,0,4.189-6.633,13.9,13.9,0,0,0,.7-4.468C30.092,179.847,29.812,178.8,29.812,177.822Z" transform="translate(0 -165.883)" fill="#fedb41"/>
        <path id="Tracciato_187" data-name="Tracciato 187" d="M291.7,233.119v.14c-.209,2.444-6.982,4.468-15.08,4.468s-14.382-1.885-14.871-4.259v-.349a.886.886,0,0,1,.07-.419c.768-2.3,6.982-4.119,14.592-4.119h.209C284.86,228.581,291.7,230.606,291.7,233.119Z" transform="translate(-226.772 -220.202)" fill="#fedb41"/>
      </g>
      <path id="Tracciato_188" data-name="Tracciato 188" d="M80.319,204.811a2.3,2.3,0,1,1,2.3-2.3,1.4,1.4,0,0,0,2.793,0,5.153,5.153,0,0,0-3.7-4.887v-.559a1.4,1.4,0,1,0-2.793,0v.559a4.876,4.876,0,0,0-3.7,4.887,5.125,5.125,0,0,0,5.1,5.1,2.3,2.3,0,1,1,0,4.608h0a2.324,2.324,0,0,1-2.3-2.3,1.4,1.4,0,1,0-2.793,0,5.089,5.089,0,0,0,3.7,4.887v1.117a1.4,1.4,0,0,0,2.793,0v-1.117a5.035,5.035,0,0,0,3.421-6.353A5.091,5.091,0,0,0,80.319,204.811Z" transform="translate(-65.168 -180.024)" fill="#e2a63b"/>
    </g>
  </g>
</svg>
