<svg xmlns="http://www.w3.org/2000/svg" xmlns:xlink="http://www.w3.org/1999/xlink" width="66.5" height="66.5" viewBox="0 0 66.5 66.5">
  <defs>
    <linearGradient id="linear-gradient" x1="0.5" x2="0.5" y2="1" gradientUnits="objectBoundingBox">
      <stop offset="0" stop-color="#fff"/>
      <stop offset="1" stop-color="gray"/>
    </linearGradient>
    <filter id="Path_1462" x="0" y="0" width="66.5" height="66.5" filterUnits="userSpaceOnUse">
      <feOffset dx="2" dy="3" input="SourceAlpha"/>
      <feGaussianBlur stdDeviation="3" result="blur"/>
      <feFlood flood-opacity="0.161"/>
      <feComposite operator="in" in2="blur"/>
      <feComposite in="SourceGraphic"/>
    </filter>
  </defs>
  <g id="Group_1613" data-name="Group 1613" transform="translate(-463.781 -25.75)">
    <g id="Group_1588" data-name="Group 1588" transform="translate(470.781 31.75)">
      <g transform="matrix(1, 0, 0, 1, -7, -6)" filter="url(#Path_1462)">
        <g id="Path_1462-2" data-name="Path 1462" transform="translate(7 6)" fill="url(#linear-gradient)">
          <path d="M 24.25 47.5 C 21.11083030700684 47.5 18.06608963012695 46.88541030883789 15.20036029815674 45.67330932617188 C 12.43188953399658 44.50233840942383 9.945329666137695 42.82579040527344 7.809770107269287 40.69023132324219 C 5.674210071563721 38.55466842651367 3.997659921646118 36.06811141967773 2.826689958572388 33.29964065551758 C 1.614590048789978 30.43391036987305 1 27.38916969299316 1 24.25 C 1 21.11083030700684 1.614590048789978 18.06608963012695 2.826689958572388 15.20036029815674 C 3.997659921646118 12.43188953399658 5.674210071563721 9.945329666137695 7.809770107269287 7.809770107269287 C 9.945329666137695 5.674210071563721 12.43188953399658 3.997659921646118 15.20036029815674 2.826689958572388 C 18.06608963012695 1.614590048789978 21.11083030700684 1 24.25 1 C 27.38916969299316 1 30.43391036987305 1.614590048789978 33.29964065551758 2.826689958572388 C 36.06811141967773 3.997659921646118 38.55466842651367 5.674210071563721 40.69023132324219 7.809770107269287 C 42.82579040527344 9.945329666137695 44.50233840942383 12.43188953399658 45.67330932617188 15.20036029815674 C 46.88541030883789 18.06608963012695 47.5 21.11083030700684 47.5 24.25 C 47.5 27.38916969299316 46.88541030883789 30.43391036987305 45.67330932617188 33.29964065551758 C 44.50233840942383 36.06811141967773 42.82579040527344 38.55466842651367 40.69023132324219 40.69023132324219 C 38.55466842651367 42.82579040527344 36.06811141967773 44.50233840942383 33.29964065551758 45.67330932617188 C 30.43391036987305 46.88541030883789 27.38916969299316 47.5 24.25 47.5 Z" stroke="none"/>
          <path d="M 24.25 2 C 21.24538993835449 2 18.33171081542969 2.588008880615234 15.58990859985352 3.747688293457031 C 12.94063186645508 4.868240356445312 10.56092071533203 6.472831726074219 8.516868591308594 8.516880035400391 C 6.472831726074219 10.56092071533203 4.868240356445312 12.94063949584961 3.747688293457031 15.58990859985352 C 2.588008880615234 18.33171081542969 2 21.24538993835449 2 24.25 C 2 27.25461006164551 2.588008880615234 30.16828918457031 3.747688293457031 32.91009140014648 C 4.868240356445312 35.55936050415039 6.472831726074219 37.93907928466797 8.516868591308594 39.98311996459961 C 10.56092071533203 42.02716827392578 12.94063186645508 43.63175964355469 15.58990859985352 44.75231170654297 C 18.33171081542969 45.91199111938477 21.24538993835449 46.5 24.25 46.5 C 27.25461006164551 46.5 30.16827964782715 45.91199111938477 32.91009140014648 44.75231170654297 C 35.55936050415039 43.63175964355469 37.93907928466797 42.02716827392578 39.98311996459961 39.98311996459961 C 42.02716827392578 37.93907928466797 43.63175964355469 35.55936050415039 44.75231170654297 32.91009140014648 C 45.91199111938477 30.16827964782715 46.5 27.25461006164551 46.5 24.25 C 46.5 21.24538993835449 45.91199111938477 18.33172035217285 44.75231170654297 15.58990859985352 C 43.63175964355469 12.94063949584961 42.02716827392578 10.56092071533203 39.98311996459961 8.516880035400391 C 37.93907928466797 6.472831726074219 35.55936050415039 4.868240356445312 32.91009140014648 3.747688293457031 C 30.16827964782715 2.588008880615234 27.25461006164551 2 24.25 2 M 24.25 0 C 37.64289855957031 0 48.5 10.85710144042969 48.5 24.25 C 48.5 37.64289855957031 37.64289855957031 48.5 24.25 48.5 C 10.85708999633789 48.5 0 37.64289855957031 0 24.25 C 0 10.85710144042969 10.85708999633789 0 24.25 0 Z" stroke="none" fill="#00825b"/>
        </g>
      </g>
      <text id="Yes" transform="translate(24.25 29.75)" fill="#fff" font-size="14" font-family="Raleway-Bold, Raleway" font-weight="700" letter-spacing="0.009em"><tspan x="-11.76" y="0">Yes</tspan></text>
    </g>
  </g>
</svg>
